<svg xmlns="http://www.w3.org/2000/svg" height="511pt" version="1.1" viewBox="-44 1 511 511.99994" width="511pt">
<g id="surface1">
<path d="M 424.222656 423.722656 L 0.5 423.722656 L 0.5 512 L 424.222656 512 Z M 247.671875 476.691406 L 53.464844 476.691406 Z M 247.671875 476.691406 " style=" stroke:none;fill-rule:nonzero;fill:rgb(34.117647%,64.313725%,100%);fill-opacity:1;" />
<path d="M 424.222656 406.070312 L 388.914062 0 L 35.808594 0 L 0.5 406.070312 L 0.5 423.722656 L 424.222656 423.722656 Z M 159.398438 256 L 106.429688 256 C 86.929688 256 71.121094 240.191406 71.121094 220.691406 L 71.121094 203.035156 C 71.121094 183.535156 86.929688 167.726562 106.429688 167.726562 L 159.398438 167.726562 C 172.101562 167.722656 183.832031 174.542969 190.109375 185.589844 C 183.832031 174.542969 172.101562 167.722656 159.398438 167.726562 L 106.429688 167.726562 C 86.929688 167.726562 71.121094 183.535156 71.121094 203.035156 L 71.121094 220.691406 C 71.121094 240.191406 86.929688 256 106.429688 256 L 159.398438 256 C 171.707031 256 183.132812 249.589844 189.542969 239.078125 C 183.132812 249.589844 171.707031 256 159.398438 256 Z M 353.601562 220.691406 C 353.601562 240.191406 337.792969 256 318.292969 256 L 265.328125 256 C 253.015625 256 241.59375 249.585938 235.183594 239.078125 C 241.59375 249.585938 253.015625 256 265.328125 256 L 318.292969 256 C 337.792969 256 353.601562 240.191406 353.601562 220.691406 L 353.601562 203.035156 C 353.601562 183.53125 337.792969 167.722656 318.292969 167.722656 L 265.328125 167.722656 C 252.621094 167.71875 240.894531 174.542969 234.617188 185.589844 C 240.894531 174.542969 252.621094 167.71875 265.328125 167.722656 L 318.292969 167.722656 C 337.792969 167.722656 353.601562 183.53125 353.601562 203.035156 Z M 353.601562 220.691406 " style=" stroke:none;fill-rule:nonzero;fill:rgb(87.843137%,87.843137%,88.627451%);fill-opacity:1;" />
<path d="M 256.5 485.515625 L 44.636719 485.515625 L 44.636719 450.207031 L 62.292969 450.207031 L 62.292969 467.863281 L 238.84375 467.863281 L 238.84375 450.207031 L 256.5 450.207031 Z M 256.5 485.515625 " style=" stroke:none;fill-rule:nonzero;fill:rgb(12.941176%,25.098039%,60.392157%);fill-opacity:1;" />
<path d="M 353.601562 459.035156 L 388.914062 459.035156 L 388.914062 476.691406 L 353.601562 476.691406 Z M 353.601562 459.035156 " style=" stroke:none;fill-rule:nonzero;fill:rgb(12.941176%,25.098039%,60.392157%);fill-opacity:1;" />
<path d="M 309.464844 459.035156 L 344.773438 459.035156 L 344.773438 476.691406 L 309.464844 476.691406 Z M 309.464844 459.035156 " style=" stroke:none;fill-rule:nonzero;fill:rgb(12.941176%,25.098039%,60.392157%);fill-opacity:1;" />
<path d="M 318.292969 264.828125 L 265.328125 264.828125 C 249.917969 264.875 235.613281 256.832031 227.640625 243.640625 C 225.0625 239.503906 226.324219 234.058594 230.457031 231.480469 C 234.59375 228.898438 240.039062 230.160156 242.621094 234.296875 C 242.652344 234.34375 242.679688 234.394531 242.710938 234.441406 C 247.488281 242.363281 256.074219 247.195312 265.328125 247.171875 L 318.292969 247.171875 C 332.917969 247.171875 344.773438 235.316406 344.773438 220.691406 L 344.773438 203.035156 C 344.773438 188.40625 332.917969 176.550781 318.292969 176.550781 L 265.328125 176.550781 C 255.796875 176.570312 247.007812 181.683594 242.285156 189.960938 C 239.949219 194.238281 234.585938 195.816406 230.308594 193.476562 C 226.03125 191.140625 224.453125 185.78125 226.789062 181.5 C 226.839844 181.410156 226.890625 181.320312 226.945312 181.230469 C 234.808594 167.441406 249.453125 158.921875 265.328125 158.898438 L 318.292969 158.898438 C 342.65625 158.925781 362.402344 178.667969 362.429688 203.035156 L 362.429688 220.691406 C 362.402344 245.054688 342.65625 264.796875 318.292969 264.828125 Z M 318.292969 264.828125 " style=" stroke:none;fill-rule:nonzero;fill:rgb(34.117647%,64.313725%,100%);fill-opacity:1;" />
<path d="M 159.398438 264.828125 L 106.429688 264.828125 C 82.066406 264.796875 62.324219 245.054688 62.292969 220.691406 L 62.292969 203.035156 C 62.320312 178.667969 82.066406 158.925781 106.429688 158.894531 L 159.398438 158.894531 C 175.269531 158.917969 189.914062 167.441406 197.78125 181.230469 C 200.265625 185.425781 198.878906 190.839844 194.683594 193.324219 C 190.492188 195.808594 185.074219 194.421875 182.589844 190.230469 C 182.539062 190.140625 182.488281 190.050781 182.4375 189.960938 C 177.714844 181.683594 168.925781 176.566406 159.398438 176.550781 L 106.433594 176.550781 C 91.804688 176.550781 79.949219 188.40625 79.949219 203.03125 L 79.949219 220.6875 C 79.949219 235.316406 91.804688 247.171875 106.433594 247.171875 L 159.398438 247.171875 C 168.640625 247.203125 177.226562 242.386719 182.015625 234.476562 C 184.351562 230.199219 189.710938 228.621094 193.992188 230.957031 C 198.269531 233.292969 199.847656 238.65625 197.511719 242.9375 C 197.378906 243.175781 197.234375 243.410156 197.082031 243.640625 C 189.113281 256.832031 174.808594 264.875 159.398438 264.828125 Z M 159.398438 264.828125 " style=" stroke:none;fill-rule:nonzero;fill:rgb(34.117647%,64.313725%,100%);fill-opacity:1;" />
<path d="M 274.15625 220.691406 L 150.570312 220.691406 C 145.691406 220.691406 141.742188 216.738281 141.742188 211.863281 C 141.742188 206.988281 145.695312 203.035156 150.570312 203.035156 L 274.15625 203.035156 C 279.03125 203.035156 282.980469 206.988281 282.980469 211.863281 C 282.980469 216.738281 279.03125 220.691406 274.15625 220.691406 Z M 274.15625 220.691406 " style=" stroke:none;fill-rule:nonzero;fill:rgb(34.117647%,64.313725%,100%);fill-opacity:1;" />
</g>
</svg>